<svg width="181" height="159" viewBox="0 0 181 159" fill="none" xmlns="http://www.w3.org/2000/svg">
<path d="M141.289 56.1705C142.946 56.1493 144.281 54.7874 144.163 53.1347C143.27 40.58 137.802 28.746 128.739 19.9127C118.957 10.3794 105.79 5.12219 92.132 5.29759C78.4745 5.47299 65.446 11.0666 55.9127 20.848C47.0794 29.9111 41.9173 41.8816 41.3464 54.4551C41.2712 56.1103 42.6406 57.4374 44.2973 57.4161L53.5138 57.2978C55.1705 57.2765 56.4833 55.9139 56.5989 54.2611C57.1956 45.7274 60.7945 37.6413 66.8102 31.4691C73.5266 24.5779 82.7054 20.6371 92.3274 20.5135C101.949 20.39 111.226 24.0938 118.118 30.8102C124.29 36.8258 128.095 44.8168 128.911 53.3324C129.069 54.9817 130.416 56.3102 132.073 56.2889L141.289 56.1705Z" fill="white" fill-opacity="0.9"/>
<rect y="47" width="177" height="105" rx="20" fill="url(#paint0_linear_1_19)"/>
<rect y="47" width="177" height="105" rx="20" stroke="black"/>
<rect x="4" y="45" width="177" height="105" rx="20" fill="url(#paint1_linear_1_19)" fill-opacity="0.7"/>
<rect x="4" y="45" width="177" height="105" rx="20" stroke="black"/>
<path d="M136.289 56.1705C137.946 56.1493 139.281 54.7874 139.163 53.1347C138.27 40.58 132.802 28.746 123.739 19.9127C113.957 10.3794 100.79 5.12219 87.132 5.29759C73.4745 5.47299 60.446 11.0666 50.9127 20.848C42.0794 29.9111 36.9173 41.8816 36.3464 54.4551C36.2712 56.1103 37.6406 57.4374 39.2973 57.4161L48.5138 57.2978C50.1705 57.2765 51.4833 55.9139 51.5989 54.2611C52.1956 45.7274 55.7945 37.6413 61.8102 31.4691C68.5266 24.5779 77.7054 20.6371 87.3274 20.5135C96.9494 20.39 106.226 24.0938 113.118 30.8102C119.29 36.8258 123.095 44.8168 123.911 53.3324C124.069 54.9817 125.416 56.3102 127.073 56.2889L136.289 56.1705Z" fill="white"/>
<path d="M136.289 56.1705C137.946 56.1493 139.281 54.7874 139.163 53.1347C138.27 40.58 132.802 28.746 123.739 19.9127C113.957 10.3794 100.79 5.12219 87.132 5.29759C73.4745 5.47299 60.446 11.0666 50.9127 20.848C42.0794 29.9111 36.9173 41.8816 36.3464 54.4551C36.2712 56.1103 37.6406 57.4374 39.2973 57.4161L48.5138 57.2978C50.1705 57.2765 51.4833 55.9139 51.5989 54.2611C52.1956 45.7274 55.7945 37.6413 61.8102 31.4691C68.5266 24.5779 77.7054 20.6371 87.3274 20.5135C96.9494 20.39 106.226 24.0938 113.118 30.8102C119.29 36.8258 123.095 44.8168 123.911 53.3324C124.069 54.9817 125.416 56.3102 127.073 56.2889L136.289 56.1705Z" fill="white"/>
<path d="M15.7 132C14.4333 132 13.5667 131.633 13.1 130.9C12.6333 130.167 12.4 129.367 12.4 128.5C12.4 124.367 12.8 119.633 13.6 114.3C14.4667 108.967 15.5 103.667 16.7 98.4C17.7667 93.9333 18.9333 89.7667 20.2 85.9C21.5333 82.0333 22.7 78.8667 23.7 76.4C25.1667 72.9333 26.8333 70.3 28.7 68.5C30.6333 66.6333 32.8667 65.7 35.4 65.7C37.2667 65.7 38.9333 66.3333 40.4 67.6C41.8667 68.8 42.7333 71 43 74.2C43.4 78.0667 43.8667 81.9667 44.4 85.9C44.9333 89.8333 45.5333 93.4333 46.2 96.7C46.8667 99.9 47.5667 102.367 48.3 104.1C48.9 105.633 49.7667 106.4 50.9 106.4C52.1667 106.4 53.2667 105.6 54.2 104C55.0667 102.533 56 100.533 57 98C58 95.4667 58.9667 92.8 59.9 90C60.9 87.1333 61.7667 84.5333 62.5 82.2C63.3667 79.6667 64.3333 77.1333 65.4 74.6C66.5333 72 67.9667 69.8667 69.7 68.2C71.4333 66.4667 73.6 65.6 76.2 65.6C78.6 65.6 80.3 66.4333 81.3 68.1C82.3667 69.7 82.9 72.2667 82.9 75.8C82.9 78.5333 82.8 81.4 82.6 84.4C82.5333 86.1333 82.4333 87.9333 82.3 89.8C82.2333 91.6 82.2 93.4667 82.2 95.4C82.2 98.4 82.3333 101.567 82.6 104.9C82.9333 108.233 83.5333 111.367 84.4 114.3C85.3333 117.233 86.7 119.7 88.5 121.7C89.0333 122.167 89.5 122.7 89.9 123.3C90.3667 123.9 90.6 124.567 90.6 125.3C90.6 126.967 89.7 128.5 87.9 129.9C86.1667 131.233 84.1667 131.9 81.9 131.9C79.8333 131.9 78.3 131.233 77.3 129.9C76.3 128.567 75.5 126.767 74.9 124.5C74.2333 121.7 73.7667 118.7 73.5 115.5C73.2333 112.3 73.1 109.2 73.1 106.2C73.1 101.4 73.2667 97 73.6 93C74 88.9333 74.2 85.9333 74.2 84C74.2 82.9333 74.1 82.1667 73.9 81.7C73.7 81.1667 73.2 80.9 72.4 80.9C71.4667 80.9 70.6667 81.3333 70 82.2C69.4 83 68.9 84.1333 68.5 85.6C67.6333 88.4 66.6667 91.4 65.6 94.6C64.5333 97.8 63.4 100.933 62.2 104C61.0667 107.067 59.8333 109.8 58.5 112.2C56.9667 115 55.3 116.9 53.5 117.9C51.7667 118.833 50 119.3 48.2 119.3C45.4 119.3 43.2667 118.433 41.8 116.7C40.4 114.9 39.3667 112.933 38.7 110.8C37.8333 107.933 37.0333 104.2 36.3 99.6C35.5667 94.9333 35.0333 89.7 34.7 83.9C34.5667 81.4333 33.7667 80.2 32.3 80.2C30.7 80.2 29.4333 81.4 28.5 83.8C27.7 86.2 26.9333 89.0333 26.2 92.3C25.4667 95.5 24.8667 98.8667 24.4 102.4C24 105.867 23.8 109.3 23.8 112.7C23.8 115.567 23.9 118.067 24.1 120.2C24.3667 122.333 24.5 124.333 24.5 126.2C24.5 127.533 23.9667 128.633 22.9 129.5C21.9 130.367 20.7 131 19.3 131.4C17.9 131.8 16.7 132 15.7 132ZM98.0242 132C96.7576 132 95.8909 131.633 95.4242 130.9C94.9576 130.167 94.7242 129.367 94.7242 128.5C94.7242 124.367 95.1242 119.633 95.9242 114.3C96.7909 108.967 97.8242 103.667 99.0242 98.4C100.091 93.9333 101.258 89.7667 102.524 85.9C103.858 82.0333 105.024 78.8667 106.024 76.4C107.491 72.9333 109.158 70.3 111.024 68.5C112.958 66.6333 115.191 65.7 117.724 65.7C119.591 65.7 121.258 66.3333 122.724 67.6C124.191 68.8 125.058 71 125.324 74.2C125.724 78.0667 126.191 81.9667 126.724 85.9C127.258 89.8333 127.858 93.4333 128.524 96.7C129.191 99.9 129.891 102.367 130.624 104.1C131.224 105.633 132.091 106.4 133.224 106.4C134.491 106.4 135.591 105.6 136.524 104C137.391 102.533 138.324 100.533 139.324 98C140.324 95.4667 141.291 92.8 142.224 90C143.224 87.1333 144.091 84.5333 144.824 82.2C145.691 79.6667 146.658 77.1333 147.724 74.6C148.858 72 150.291 69.8667 152.024 68.2C153.758 66.4667 155.924 65.6 158.524 65.6C160.924 65.6 162.624 66.4333 163.624 68.1C164.691 69.7 165.224 72.2667 165.224 75.8C165.224 78.5333 165.124 81.4 164.924 84.4C164.858 86.1333 164.758 87.9333 164.624 89.8C164.558 91.6 164.524 93.4667 164.524 95.4C164.524 98.4 164.658 101.567 164.924 104.9C165.258 108.233 165.858 111.367 166.724 114.3C167.658 117.233 169.024 119.7 170.824 121.7C171.358 122.167 171.824 122.7 172.224 123.3C172.691 123.9 172.924 124.567 172.924 125.3C172.924 126.967 172.024 128.5 170.224 129.9C168.491 131.233 166.491 131.9 164.224 131.9C162.158 131.9 160.624 131.233 159.624 129.9C158.624 128.567 157.824 126.767 157.224 124.5C156.558 121.7 156.091 118.7 155.824 115.5C155.558 112.3 155.424 109.2 155.424 106.2C155.424 101.4 155.591 97 155.924 93C156.324 88.9333 156.524 85.9333 156.524 84C156.524 82.9333 156.424 82.1667 156.224 81.7C156.024 81.1667 155.524 80.9 154.724 80.9C153.791 80.9 152.991 81.3333 152.324 82.2C151.724 83 151.224 84.1333 150.824 85.6C149.958 88.4 148.991 91.4 147.924 94.6C146.858 97.8 145.724 100.933 144.524 104C143.391 107.067 142.158 109.8 140.824 112.2C139.291 115 137.624 116.9 135.824 117.9C134.091 118.833 132.324 119.3 130.524 119.3C127.724 119.3 125.591 118.433 124.124 116.7C122.724 114.9 121.691 112.933 121.024 110.8C120.158 107.933 119.358 104.2 118.624 99.6C117.891 94.9333 117.358 89.7 117.024 83.9C116.891 81.4333 116.091 80.2 114.624 80.2C113.024 80.2 111.758 81.4 110.824 83.8C110.024 86.2 109.258 89.0333 108.524 92.3C107.791 95.5 107.191 98.8667 106.724 102.4C106.324 105.867 106.124 109.3 106.124 112.7C106.124 115.567 106.224 118.067 106.424 120.2C106.691 122.333 106.824 124.333 106.824 126.2C106.824 127.533 106.291 128.633 105.224 129.5C104.224 130.367 103.024 131 101.624 131.4C100.224 131.8 99.0242 132 98.0242 132Z" fill="white"/>
<path d="M163.94 61.11C163.7 61.11 163.593 61.03 163.62 60.87C163.693 60.5833 163.753 60.2933 163.8 60C163.853 59.7 163.88 59.4133 163.88 59.14C163.88 58.7867 163.857 58.53 163.81 58.37C163.77 58.2033 163.713 58.09 163.64 58.03C163.567 57.9633 163.477 57.9133 163.37 57.88C163.323 57.86 163.28 57.8333 163.24 57.8C163.207 57.7667 163.19 57.72 163.19 57.66C163.19 57.5667 163.227 57.4633 163.3 57.35C163.373 57.2367 163.477 57.14 163.61 57.06C163.75 56.9733 163.907 56.93 164.08 56.93C164.307 56.93 164.463 57.01 164.55 57.17C164.637 57.3233 164.68 57.5267 164.68 57.78C164.68 57.9467 164.663 58.1333 164.63 58.34C164.597 58.5467 164.563 58.7333 164.53 58.9L164.55 58.91C164.657 58.5567 164.787 58.23 164.94 57.93C165.1 57.63 165.29 57.3867 165.51 57.2C165.737 57.0133 165.997 56.92 166.29 56.92C166.59 56.92 166.827 57.0233 167 57.23C167.173 57.43 167.26 57.7267 167.26 58.12V58.34C167.453 57.9333 167.687 57.5933 167.96 57.32C168.24 57.0467 168.577 56.91 168.97 56.91C169.29 56.91 169.54 57.0167 169.72 57.23C169.9 57.4433 169.99 57.71 169.99 58.03C169.99 58.1567 169.977 58.28 169.95 58.4C169.923 58.5133 169.893 58.6267 169.86 58.74C169.833 58.8467 169.807 58.9567 169.78 59.07C169.753 59.1833 169.74 59.2967 169.74 59.41C169.74 59.81 169.91 60.07 170.25 60.19C170.297 60.21 170.333 60.2333 170.36 60.26C170.387 60.28 170.4 60.32 170.4 60.38C170.4 60.44 170.38 60.5267 170.34 60.64C170.307 60.7533 170.237 60.86 170.13 60.96C170.023 61.0533 169.87 61.1 169.67 61.1C169.41 61.1 169.21 61.0067 169.07 60.82C168.93 60.6267 168.86 60.3833 168.86 60.09C168.86 59.9433 168.873 59.79 168.9 59.63C168.927 59.47 168.96 59.3167 169 59.17C169.033 59.0367 169.06 58.91 169.08 58.79C169.107 58.67 169.12 58.5667 169.12 58.48C169.12 58.32 169.08 58.2033 169 58.13C168.927 58.0567 168.827 58.02 168.7 58.02C168.487 58.02 168.293 58.0867 168.12 58.22C167.953 58.3533 167.803 58.5267 167.67 58.74C167.543 58.9533 167.433 59.1867 167.34 59.44C167.347 59.5 167.35 59.58 167.35 59.68C167.357 59.7733 167.36 59.8567 167.36 59.93C167.36 60.0567 167.35 60.19 167.33 60.33C167.317 60.47 167.287 60.5867 167.24 60.68C167.187 60.8067 167.107 60.91 167 60.99C166.9 61.07 166.763 61.11 166.59 61.11C166.517 61.11 166.447 61.0933 166.38 61.06C166.313 61.0333 166.28 60.9867 166.28 60.92C166.28 60.8933 166.3 60.7767 166.34 60.57C166.38 60.3567 166.42 60.0967 166.46 59.79C166.5 59.4833 166.52 59.1833 166.52 58.89C166.52 58.57 166.487 58.35 166.42 58.23C166.353 58.1033 166.253 58.04 166.12 58.04C165.953 58.04 165.793 58.11 165.64 58.25C165.493 58.39 165.357 58.57 165.23 58.79C165.11 59.01 165.003 59.24 164.91 59.48C164.823 59.72 164.753 59.9433 164.7 60.15V60.26C164.7 60.5067 164.63 60.71 164.49 60.87C164.357 61.03 164.173 61.11 163.94 61.11Z" fill="white"/>
<defs>
<linearGradient id="paint0_linear_1_19" x1="2.33237e-06" y1="135" x2="170.5" y2="50.5" gradientUnits="userSpaceOnUse">
<stop stop-color="#A60FB4"/>
<stop offset="0.977083" stop-color="#CF0DE0"/>
</linearGradient>
<linearGradient id="paint1_linear_1_19" x1="4" y1="133" x2="174.5" y2="48.5" gradientUnits="userSpaceOnUse">
<stop stop-color="#A60FB4"/>
<stop offset="0.977083" stop-color="#CF0DE0"/>
</linearGradient>
</defs>
</svg>
